<?xml version="1.0" standalone="no"?>
<!DOCTYPE svg PUBLIC "-//W3C//DTD SVG 20010904//EN"
 "http://www.w3.org/TR/2001/REC-SVG-20010904/DTD/svg10.dtd">
<svg version="1.0" xmlns="http://www.w3.org/2000/svg"
 width="256.000000pt" height="256.000000pt" viewBox="0 0 256.000000 256.000000"
 preserveAspectRatio="xMidYMid meet">

<g transform="translate(0.000000,256.000000) scale(0.100000,-0.100000)"
fill="#000000" stroke="none">
<path d="M1180 2554 c-357 -33 -697 -217 -904 -487 -60 -79 -128 -187 -124
-198 2 -4 93 -81 203 -171 l199 -164 43 85 c99 198 284 348 497 401 164 41
367 21 516 -52 36 -18 68 -32 72 -32 12 -1 408 326 403 334 -2 4 -37 30 -78
58 -146 101 -318 173 -493 206 -85 16 -261 26 -334 20z"/>
</g>
</svg>
