<?xml version="1.0" encoding="UTF-8"?>
<!-- Generator: visioncortex VTracer 0.6.3 -->
<svg version="1.1" xmlns="http://www.w3.org/2000/svg" style="fill:#fff;" width="1280" height="1280">
<path d="M0 0 C1.34 -0 2.69 -0 4.03 -0.01 C7.7 -0.01 11.36 -0.01 15.03 -0.01 C19.03 -0 23.02 -0.01 27.02 -0.01 C34.02 -0.02 41.02 -0.02 48.02 -0.02 C58.42 -0.02 68.83 -0.02 79.24 -0.03 C98.91 -0.04 118.58 -0.04 138.26 -0.04 C153.45 -0.04 168.65 -0.04 183.84 -0.04 C188.22 -0.05 192.59 -0.05 196.97 -0.05 C198.06 -0.05 199.15 -0.05 200.27 -0.05 C230.87 -0.05 261.47 -0.06 292.07 -0.06 C293.22 -0.06 294.37 -0.06 295.56 -0.06 C301.4 -0.06 307.25 -0.06 313.09 -0.06 C314.26 -0.06 315.42 -0.06 316.61 -0.06 C318.96 -0.06 321.31 -0.06 323.65 -0.06 C360.17 -0.06 396.69 -0.06 433.2 -0.08 C474.25 -0.09 515.29 -0.1 556.33 -0.1 C560.71 -0.1 565.09 -0.1 569.47 -0.1 C570.55 -0.1 571.63 -0.1 572.74 -0.1 C590.07 -0.1 607.39 -0.11 624.72 -0.11 C642.15 -0.12 659.57 -0.12 677 -0.12 C687.34 -0.11 697.68 -0.12 708.03 -0.13 C714.95 -0.13 721.87 -0.13 728.79 -0.12 C732.72 -0.12 736.66 -0.12 740.59 -0.13 C800.01 -0.24 800.01 -0.24 813.12 11.13 C814.68 13.38 814.68 13.38 816.06 15.75 C819.46 21.45 823.96 22.45 830.12 24.13 C837.93 26.42 844 28.71 850.12 34.13 C850.96 34.86 851.8 35.59 852.66 36.34 C856.95 40.15 861.07 44.07 865.12 48.13 C866.09 48.89 867.06 49.65 868.06 50.44 C870.48 52.4 872.2 54.47 874 57 C876.1 59.93 878.22 62.21 881 64.5 C890.74 72.73 895.5 81.8 898.69 93.94 C900.1 99.28 901.19 102.84 905.94 106 C912.6 110.45 916.77 116.41 918.62 124.25 C919.05 126.56 919.41 128.87 919.75 131.19 C919.87 131.95 919.99 132.71 920.12 133.49 C921.9 145.25 922.27 157.09 922.25 168.97 C922.25 170.31 922.25 171.65 922.26 172.99 C922.26 176.65 922.26 180.3 922.26 183.96 C922.26 187.94 922.26 191.93 922.26 195.92 C922.27 202.9 922.27 209.88 922.27 216.85 C922.27 227.23 922.27 237.61 922.28 247.99 C922.29 267.61 922.29 287.23 922.29 306.84 C922.29 322 922.29 337.15 922.3 352.3 C922.3 356.67 922.3 361.03 922.3 365.4 C922.3 366.48 922.3 367.57 922.3 368.69 C922.31 399.2 922.31 429.72 922.31 460.24 C922.31 461.39 922.31 462.54 922.31 463.72 C922.31 469.55 922.31 475.38 922.31 481.21 C922.31 482.95 922.31 482.95 922.31 484.72 C922.31 487.06 922.31 489.4 922.31 491.74 C922.31 528.16 922.32 564.57 922.33 600.99 C922.34 641.92 922.35 682.85 922.35 723.78 C922.35 728.15 922.35 732.52 922.35 736.88 C922.35 737.96 922.35 739.04 922.35 740.14 C922.35 757.42 922.36 774.7 922.37 791.98 C922.38 809.36 922.38 826.74 922.37 844.12 C922.37 854.43 922.37 864.74 922.38 875.06 C922.38 881.96 922.38 888.86 922.38 895.76 C922.37 899.69 922.37 903.61 922.38 907.54 C922.49 965.35 922.49 965.35 913.12 978.13 C911.24 980.02 909.3 981.72 907.22 983.39 C901.58 988.07 899.35 991.33 897.69 998.32 C895.87 1005.17 893.79 1011.62 889.12 1017.13 C888.13 1017.46 887.14 1017.79 886.12 1018.13 C885.82 1018.9 885.51 1019.66 885.2 1020.45 C883.93 1023.6 882.54 1024.81 879.94 1026.94 C876.9 1029.52 874.18 1032.08 871.62 1035.13 C868.43 1038.92 864.87 1042.08 861.13 1045.3 C858.95 1047.18 858.95 1047.18 856.87 1050 C854.82 1052.5 853.08 1052.96 850.12 1054.13 C849.82 1054.76 849.51 1055.39 849.19 1056.04 C847.14 1060.05 843.14 1061.44 839.12 1063.13 C837.62 1063.58 836.1 1064.01 834.58 1064.43 C822.27 1067.7 822.27 1067.7 813.66 1076.79 C809.34 1083.35 802.5 1085.52 795.12 1087.13 C781.28 1089.63 767.33 1090.28 753.28 1090.26 C751.94 1090.26 750.6 1090.26 749.26 1090.26 C745.61 1090.27 741.95 1090.27 738.3 1090.26 C734.31 1090.26 730.32 1090.27 726.33 1090.27 C719.36 1090.27 712.38 1090.28 705.4 1090.27 C695.02 1090.27 684.64 1090.28 674.26 1090.28 C654.64 1090.29 635.03 1090.3 615.41 1090.3 C600.26 1090.3 585.1 1090.3 569.95 1090.3 C565.58 1090.3 561.22 1090.3 556.86 1090.3 C555.23 1090.3 555.23 1090.3 553.57 1090.3 C523.05 1090.31 492.53 1090.31 462.02 1090.31 C460.86 1090.31 459.71 1090.31 458.53 1090.31 C452.7 1090.31 446.87 1090.31 441.04 1090.31 C439.88 1090.31 438.73 1090.31 437.53 1090.31 C435.19 1090.31 432.85 1090.31 430.51 1090.31 C394.1 1090.31 357.68 1090.32 321.27 1090.33 C280.33 1090.35 239.4 1090.36 198.47 1090.36 C194.1 1090.36 189.73 1090.36 185.37 1090.36 C183.75 1090.36 183.75 1090.36 182.11 1090.36 C164.83 1090.36 147.55 1090.36 130.27 1090.37 C112.89 1090.38 95.51 1090.38 78.13 1090.38 C67.82 1090.37 57.51 1090.37 47.19 1090.38 C40.29 1090.39 33.39 1090.39 26.49 1090.38 C22.56 1090.38 18.64 1090.38 14.72 1090.38 C-44.98 1090.5 -44.98 1090.5 -56.88 1080.13 C-59.02 1077.9 -60.97 1075.56 -62.88 1073.13 C-67.05 1067.95 -72.69 1067.05 -78.85 1065.27 C-85.62 1063.19 -90.58 1060.82 -95.88 1056.13 C-96.71 1055.4 -97.55 1054.67 -98.41 1053.92 C-102.7 1050.11 -106.82 1046.18 -110.88 1042.13 C-111.85 1041.37 -112.82 1040.6 -113.81 1039.82 C-116.23 1037.85 -117.95 1035.79 -119.75 1033.25 C-121.85 1030.32 -123.98 1028.05 -126.75 1025.75 C-137.34 1016.8 -141.9 1006.76 -145.17 993.57 C-146.56 988.78 -147.92 987.03 -152.16 984.38 C-159.85 978.77 -163.62 971.02 -165.16 961.85 C-165.27 961.12 -165.38 960.38 -165.5 959.63 C-165.62 958.93 -165.74 958.23 -165.87 957.5 C-167.81 945.49 -168.03 933.27 -168.01 921.13 C-168.01 919.78 -168.01 918.44 -168.01 917.09 C-168.02 913.43 -168.01 909.77 -168.01 906.1 C-168.01 902.1 -168.01 898.11 -168.02 894.11 C-168.02 887.11 -168.02 880.11 -168.02 873.12 C-168.02 862.71 -168.03 852.3 -168.03 841.9 C-168.04 822.23 -168.04 802.56 -168.04 782.89 C-168.04 767.7 -168.05 752.51 -168.05 737.32 C-168.05 732.94 -168.05 728.56 -168.05 724.19 C-168.05 723.1 -168.05 722.01 -168.05 720.89 C-168.06 690.3 -168.06 659.7 -168.06 629.1 C-168.06 627.95 -168.06 626.8 -168.06 625.61 C-168.06 619.77 -168.06 613.92 -168.06 608.08 C-168.06 606.92 -168.06 605.76 -168.06 604.56 C-168.06 602.22 -168.06 599.87 -168.06 597.52 C-168.06 561.01 -168.07 524.5 -168.08 488 C-168.1 446.96 -168.11 405.92 -168.11 364.88 C-168.11 360.5 -168.11 356.12 -168.11 351.74 C-168.11 350.67 -168.11 349.59 -168.11 348.48 C-168.11 331.15 -168.11 313.82 -168.12 296.5 C-168.13 279.08 -168.13 261.66 -168.12 244.23 C-168.12 233.89 -168.12 223.55 -168.13 213.21 C-168.14 206.29 -168.14 199.38 -168.13 192.46 C-168.12 188.52 -168.12 184.59 -168.13 180.65 C-168.24 122.55 -168.24 122.55 -156.88 109.13 C-154.63 107.42 -152.42 106 -149.93 104.68 C-145.2 101.11 -144.31 95.31 -143.06 89.82 C-139.86 77.03 -131.44 68.64 -122.25 59.52 C-120.36 57.61 -118.67 55.72 -117 53.63 C-114.98 51.23 -113.05 49.43 -110.44 47.69 C-107.67 45.84 -105.69 43.88 -103.56 41.32 C-94.08 30.11 -83.45 25.99 -69.66 22.16 C-65.32 20.56 -63.83 18.1 -61.44 14.32 C-54.52 5.16 -43.49 3.2 -32.76 1.67 C-21.86 0.38 -10.97 -0.02 0 0 Z M97.12 250.13 C97.58 251.07 98.04 252.02 98.51 252.99 C99.13 254.28 99.75 255.58 100.37 256.88 C100.7 257.56 101.02 258.23 101.36 258.93 C103.34 263.15 104.77 267.22 105.94 271.75 C106.99 275.2 107.6 276.73 110.48 278.95 C113 280.22 115.44 281.25 118.12 282.13 C121.12 283.13 121.12 283.13 122.19 284.9 C123.14 287.18 124.09 289.46 125 291.75 C125.35 292.63 125.69 293.5 126.05 294.39 C126.76 296.21 127.46 298.03 128.13 299.86 C130.98 307.45 134.09 310.74 141.12 314.69 C145.33 317.72 147.71 321.93 149.88 326.54 C150.36 327.55 150.84 328.56 151.34 329.6 C151.82 330.64 152.31 331.68 152.81 332.75 C153.31 333.8 153.81 334.85 154.32 335.93 C157.96 343.63 157.96 343.63 159.12 347.13 C160.76 348.5 162.43 349.83 164.12 351.13 C165.46 352.46 166.79 353.8 168.12 355.13 C169.11 355.87 170.1 356.61 171.12 357.38 C177.41 362.62 178.96 370.54 180.9 378.18 C183.16 383.62 188.24 385.89 193.16 388.69 C197.49 391.86 199.63 395.83 201.5 400.75 C206.37 413.36 206.37 413.36 216.12 422.13 C217.95 424.1 219.53 425.98 221.12 428.13 C221.69 428.86 222.26 429.6 222.85 430.35 C227.8 437 230.43 443.63 232.85 451.5 C233.89 454.61 234.6 456.73 237.25 458.75 C238.2 459.21 239.15 459.66 240.12 460.13 C248.72 464.94 251.66 469.42 254.56 478.63 C257.04 486.29 260.33 491.23 267.35 495.32 C269.1 496.27 269.1 496.27 271.12 496.13 C271.38 496.66 271.63 497.19 271.89 497.74 C272.82 499.53 273.82 501.29 274.86 503.02 C279.11 510.11 282.49 517.04 285.13 524.89 C286.73 529.63 286.73 529.63 290.12 533.13 C291.38 533.71 292.65 534.25 293.94 534.75 C300.4 537.88 303.5 543.98 305.94 550.5 C307.44 555.69 307.92 560.74 308.12 566.13 C308.16 566.91 308.19 567.7 308.22 568.51 C308.98 589.29 308.98 589.29 304.12 597.13 C303.59 598.06 303.05 598.98 302.5 599.94 C298.17 603.93 292.67 606.28 287.12 608.13 C286.06 610.48 285.17 612.76 284.31 615.19 C281.11 623.7 277.38 629.51 270.12 635.13 C268.58 636.83 267.11 638.57 265.65 640.35 C264.12 642.13 264.12 642.13 262.15 644.05 C260.07 646.19 258.43 648.36 256.75 650.82 C256.15 651.69 255.54 652.56 254.92 653.46 C253.25 655.95 251.59 658.44 249.94 660.94 C244.1 669.66 244.1 669.66 239.37 672.32 C232.37 676.49 227.9 683.17 224.5 690.44 C221.85 696.09 218.88 698.87 213.12 701.5 C206.87 704.89 204.17 709.65 201.69 716.19 C198.79 723.58 194.94 726.84 187.94 730.25 C187.3 730.52 186.67 730.8 186.02 731.07 C181.07 733.83 179.44 737.33 177.69 742.57 C174.66 750.78 170.69 754.21 163.12 758.13 C162.22 758.4 161.31 758.66 160.37 758.94 C156.97 760.74 156.35 763.69 155.12 767.13 C151.81 775.46 148.7 781.41 140.19 785.17 C134.98 787.47 134.98 787.47 131.75 791.98 C131.4 793.08 131.05 794.18 130.69 795.32 C127.73 803.63 124.03 808.72 117.12 814.13 C116.67 814.93 116.22 815.74 115.75 816.57 C114.12 819.13 114.12 819.13 110.87 821.25 C106.51 824.14 104.31 828.16 101.7 832.61 C100.32 834.81 98.95 836.32 97.12 838.13 C97.12 838.79 97.12 839.45 97.12 840.13 C106.49 845.2 114.24 844.43 124.5 843.25 C125.53 843.14 125.53 843.14 126.59 843.02 C131.69 842.45 131.69 842.45 136.12 840.13 C137.34 837.48 137.34 837.48 138.12 834.38 C139.57 829.58 141.17 826.14 144.12 822.13 C144.12 821.47 144.12 820.81 144.12 820.13 C144.97 819.72 144.97 819.72 145.84 819.31 C148.23 818.07 150.44 816.68 152.69 815.19 C153.45 814.69 154.21 814.18 155 813.66 C159.05 810.73 160.7 808.15 162.75 803.57 C165.47 797.93 168.78 793.8 173.1 789.31 C175.29 787.08 175.29 787.08 177.19 783.88 C179.05 781.23 180.31 780.21 182.94 778.44 C189.01 774.11 192.33 767.72 195.61 761.15 C199.25 753.89 202.66 750.39 210.15 747.29 C215.76 743.99 219.06 736.46 221.75 730.75 C224.45 725.17 227.58 722.83 233.12 720.25 C240.66 716.56 242.58 711.25 245.17 703.68 C247.36 697.8 250.73 695.51 256.17 692.95 C258.12 692.13 258.12 692.13 260.87 691.32 C265.7 688.77 267.23 682.92 269.06 678.07 C271.3 672.43 273.29 668.41 278.94 665.86 C279.99 665.41 281.04 664.96 282.12 664.5 C287.12 662.18 289.04 660.4 291.06 655.25 C291.76 653.22 292.45 651.17 293.12 649.13 C296.11 642.31 300.36 639.29 306.8 635.67 C309.42 634.28 309.42 634.28 310.12 631.13 C311.11 630.8 312.1 630.47 313.12 630.13 C314.55 628.43 314.55 628.43 315.87 626.38 C321.12 619.19 327.34 615.69 336.12 614.13 C342.03 613.86 347.27 615.9 352.12 619.13 C356.83 623.51 358.63 628.42 360.81 634.42 C363.18 639.31 367.25 640.75 372.03 642.77 C377.57 646.35 379.98 651.48 382.12 657.5 C385.45 666.27 388.04 672.08 396.12 677.13 C403.74 684.95 408.8 694.08 411.44 704.57 C412.48 708.59 413.35 711.49 416.66 714.23 C418.57 715.19 420.51 716.1 422.47 716.95 C427.24 719.07 429.86 722.1 431.87 726.91 C432.93 729.67 433.95 732.45 434.86 735.27 C437.32 742.62 441.12 747 448.06 750.56 C453.42 754.64 456.33 761.12 459.19 767.07 C459.51 767.73 459.84 768.4 460.17 769.08 C461.51 771.81 462.84 774.54 464.14 777.29 C465.89 780.91 467.45 783.98 470.44 786.75 C471.04 787.33 471.64 787.91 472.26 788.5 C474.08 790.13 474.08 790.13 475.96 791.48 C482.46 796.34 484.35 803.05 486.96 810.51 C488.67 815.35 490.23 819.6 494.98 822.11 C496.01 822.58 496.01 822.58 497.06 823.07 C504.15 826.39 506.74 831.95 509.72 838.86 C511.51 841.75 513.07 842.63 516.12 844.13 C519.24 844.58 519.24 844.58 522.66 844.52 C523.31 844.52 523.95 844.53 524.61 844.53 C526.76 844.55 528.9 844.54 531.05 844.53 C532.59 844.54 534.14 844.55 535.68 844.55 C539.87 844.57 544.05 844.57 548.24 844.56 C551.74 844.56 555.24 844.57 558.73 844.57 C566.99 844.59 575.25 844.59 583.51 844.57 C592.02 844.56 600.53 844.58 609.03 844.6 C616.35 844.63 623.66 844.63 630.97 844.63 C635.34 844.62 639.7 844.63 644.06 844.64 C648.17 844.66 652.28 844.65 656.39 844.64 C657.89 844.63 659.39 844.64 660.89 844.65 C669.03 844.7 675.97 844.43 683.12 840.13 C682.65 839.17 682.18 838.22 681.7 837.23 C678.77 831.19 676.01 825.46 674.5 818.88 C673.62 815.04 673.62 815.04 670.94 812.25 C670.01 811.88 669.08 811.51 668.12 811.13 C658.69 805.87 654.82 799.77 651.75 789.57 C649.92 784.01 647.46 780.35 642.12 777.57 C640.64 776.85 640.64 776.85 639.12 776.13 C634.85 772.41 632.56 768.65 630.19 763.63 C629.84 762.93 629.5 762.23 629.14 761.5 C627.53 758.19 626.02 754.87 624.59 751.47 C621.34 743.73 617.76 739.23 611.12 734.13 C604.97 728.81 601.93 721.98 599.56 714.32 C598.15 709.92 596.61 706.41 592.3 704.19 C591.62 703.88 590.95 703.57 590.25 703.25 C581.87 699.26 578.99 692.22 575.66 683.99 C573.32 678.26 570.97 672.88 565.44 669.63 C556.04 662.96 550.6 650.33 547.37 639.62 C546.07 635.1 546.07 635.1 543.44 631.32 C541.23 630.14 541.23 630.14 539.3 629.39 C533.1 626.71 530.16 623.13 527.12 617.13 C526.42 615.29 525.76 613.43 525.12 611.57 C522.44 603.71 518.68 598.34 511.15 594.62 C505.66 590.57 502.78 583.86 500 577.82 C499.65 577.07 499.3 576.33 498.94 575.56 C497.08 571.51 495.55 567.58 494.44 563.25 C493.54 559.83 493.54 559.83 491 557.38 C490.05 556.97 489.1 556.55 488.12 556.13 C479.68 551.63 476.08 546.53 473.3 537.44 C473.06 536.57 472.81 535.71 472.56 534.82 C471.11 529.76 469.58 526.55 464.85 523.82 C463.56 523.1 463.56 523.1 462.25 522.38 C455.31 518.3 452.04 513.75 449.91 506 C448.76 501.41 447.9 496.79 447.12 492.13 C446.92 490.94 446.72 489.75 446.52 488.53 C445.36 479.06 447.52 471 452 462.63 C454.45 459.74 457.19 457.52 460.12 455.13 C461.49 453.49 462.82 451.82 464.12 450.13 C464.76 449.52 465.4 448.9 466.06 448.27 C468.16 446.09 469.51 444.01 471 441.38 C473.32 437.4 475.8 433.7 478.63 430.07 C479.64 428.75 480.62 427.4 481.55 426.03 C484.04 422.43 486 420 489.94 418 C496.75 414.18 500.49 405.86 504.2 399.2 C507.19 393.83 509.7 391.01 515.56 388.88 C521.72 385.85 524.58 380.68 527.19 374.5 C529.85 368.23 532.91 364.54 539.12 361.63 C546.36 358.21 548.74 354.3 551.62 347.07 C555.03 338.59 559.59 335.62 567.6 331.66 C572.1 328.93 573.42 325.72 574.94 320.82 C576.8 315.61 578.61 311.49 583.12 308.13 C585.32 307.19 587.53 306.3 589.75 305.44 C594.58 303.44 594.58 303.44 597.64 299.4 C598.26 297.34 598.82 295.25 599.32 293.16 C601.54 284.77 607.64 279.44 614.12 274.13 C619 269.72 622.47 264.55 626.12 259.13 C626.71 258.25 627.3 257.38 627.9 256.48 C629.32 254.37 630.72 252.25 632.12 250.13 C625.54 246.57 620.54 245.42 613.12 246.13 C612.39 246.18 611.65 246.23 610.89 246.28 C600.63 246.58 600.63 246.58 592.15 251.27 C591.16 253.89 590.62 256.38 590.12 259.13 C589.11 261.42 589.11 261.42 588 263.5 C587.53 264.41 587.53 264.41 587.05 265.34 C586.75 265.93 586.44 266.52 586.12 267.13 C585.62 268.2 585.62 268.2 585.12 269.29 C583.81 271.7 582.61 272.02 580.12 273.13 C572.79 277.43 568.81 282.76 564.69 290.07 C561.67 295.39 558.28 299.68 554.12 304.13 C552.66 305.91 551.21 307.69 549.78 309.49 C548.12 311.13 548.12 311.13 545.22 312.95 C541.74 315.4 539.92 317.79 537.56 321.32 C537.17 321.89 536.78 322.47 536.38 323.06 C534.22 326.27 532.4 329.51 530.75 333 C528.24 337.79 524.4 339.66 519.85 342.33 C513.87 346.28 510.51 351.67 508.12 358.32 C505.65 365.07 501.29 368.2 494.94 371.19 C494.3 371.45 493.67 371.71 493.02 371.98 C488.38 374.79 486.5 379.22 484.69 384.13 C481.73 391.43 478.27 394.91 471.19 398.14 C470.51 398.46 469.82 398.79 469.12 399.13 C468.28 399.51 467.43 399.89 466.56 400.29 C463.29 402.76 462.38 405.68 461.12 409.44 C459.01 415.65 456.71 420.71 451.06 424.52 C450.42 424.8 449.78 425.09 449.12 425.38 C448.16 425.82 448.16 425.82 447.19 426.27 C445.12 427.13 445.12 427.13 442.6 427.91 C439.38 429.5 438.42 431.34 436.56 434.38 C431.72 441.4 425.61 444.47 417.57 446.9 C412.81 447.34 408.98 444.69 405.12 442.13 C400.57 437.79 398.25 431.48 395.52 425.93 C393.06 420.98 391.16 417.59 386.31 414.88 C376.66 409.22 371.16 396.32 368.22 385.96 C367.77 384.11 367.34 382.24 366.96 380.37 C365.68 376.93 363.43 375.73 360.19 374.24 C359.55 373.98 358.91 373.71 358.25 373.44 C352.46 370.57 349.25 366.26 347.08 360.22 C346.44 358.16 345.81 356.09 345.17 354.03 C342.69 347.16 338.6 342.82 332.15 339.53 C326.18 335.41 323.46 329.22 320.56 322.82 C320.19 322.01 319.81 321.21 319.43 320.38 C317.93 317.14 316.45 313.89 315.04 310.6 C314.69 309.8 314.35 308.99 313.99 308.17 C313.69 307.45 313.39 306.73 313.07 305.98 C311.11 302.16 307.72 300.48 304.12 298.38 C298.2 293.94 296.12 288.5 294.12 281.5 C292.55 276.1 291.35 272.87 287.12 269.13 C285.15 268.09 283.14 267.17 281.12 266.24 C276.19 263.49 273.32 259.24 271.69 253.94 C271.54 253.31 271.4 252.68 271.25 252.02 C269.31 248.76 266.6 247.35 263.12 246.13 C258.11 245.53 253.1 245.58 248.06 245.61 C246.53 245.61 244.99 245.6 243.46 245.59 C239.31 245.57 235.16 245.58 231.01 245.59 C226.65 245.6 222.3 245.59 217.95 245.59 C210.64 245.58 203.32 245.59 196.01 245.61 C187.57 245.63 179.14 245.62 170.7 245.6 C163.44 245.58 156.18 245.58 148.92 245.59 C144.59 245.6 140.27 245.6 135.94 245.58 C131.86 245.57 127.79 245.58 123.72 245.6 C122.23 245.61 120.74 245.61 119.25 245.6 C111.14 245.55 104.25 245.86 97.12 250.13 Z " fill="#000000" transform="translate(262.87679386138916,94.87136554718018)"/>
<path d="M0 0 C0.72 -0.01 1.44 -0.02 2.19 -0.03 C19.46 -0.23 33.3 2.8 46.2 14.88 C53.86 23 59.22 31.15 61.88 42.07 C62.64 45.08 63.17 47 65.45 49.18 C67.09 50.08 68.76 50.93 70.44 51.75 C79.07 56.15 81.42 62.09 84.44 70.88 C86.88 77.68 89.25 82.16 95.69 85.69 C106.35 92.35 112.47 108.66 115.5 120.31 C115.5 121.63 115.5 122.95 115.5 124.31 C116.33 124.35 117.15 124.39 118 124.44 C123.83 125.9 127.83 129.41 131.75 133.88 C133.44 137.19 134.45 140.25 135.5 143.81 C137.73 151.89 137.73 151.89 143.58 157.56 C145.09 158.36 146.63 159.13 148.18 159.84 C154.91 164.11 157.79 171.44 161.12 178.38 C162.07 180.33 163.02 182.27 163.98 184.22 C164.39 185.08 164.8 185.94 165.23 186.82 C167.22 190.73 169.03 194.23 172.46 197.04 C173.01 197.51 173.56 197.98 174.13 198.46 C174.71 198.95 175.28 199.43 175.88 199.94 C183.99 207.13 187.08 214.84 189.82 225.22 C190.79 228.23 191.85 229.97 194.67 231.45 C195.52 231.82 196.37 232.19 197.25 232.56 C206.36 237.02 208.86 242.77 212.23 252.09 C214.68 258.3 217.69 263.3 223.31 267 C235.21 275.18 240.52 291.95 243.5 305.31 C244.41 305.43 245.31 305.54 246.25 305.66 C251.08 306.63 254.08 308.81 257.5 312.31 C260.76 317.34 262.76 322.87 264.74 328.49 C265.54 330.41 266.51 331.98 267.69 333.69 C269.5 336.31 269.5 336.31 269.5 338.31 C270.18 338.35 270.86 338.39 271.56 338.44 C277.39 340.17 281.25 344.44 284.2 349.63 C285.02 351.23 285.83 352.83 286.62 354.44 C287.05 355.27 287.48 356.11 287.92 356.97 C290.73 362.52 293.2 368.1 295.27 373.96 C297.18 377.62 300.18 379.45 303.56 381.66 C311.03 386.57 313.71 393.24 316.06 401.62 C317.23 405.7 318.31 408.37 321.5 411.31 C322.95 412.11 324.41 412.88 325.88 413.62 C334.32 418.14 337.64 426.18 341.61 434.5 C344.25 440.02 346.89 445.42 351.88 449.19 C355.81 452.41 358.63 456.13 361.5 460.31 C362.16 461.2 362.83 462.08 363.51 463 C365.53 466.36 366.47 469.24 367.48 472.99 C369.33 480.46 369.33 480.46 373.9 486.35 C376.47 487.53 376.47 487.53 379.1 488.39 C384.33 490.39 386.84 495.07 389.38 499.81 C391.12 505.23 391.2 509.25 388.88 514.44 C385.43 520.68 380.15 524.08 373.5 526.31 C370.58 526.94 367.66 527.24 364.69 527.5 C363.81 527.58 362.93 527.66 362.03 527.74 C353.78 528.38 345.52 528.55 337.25 528.61 C335.77 528.62 334.29 528.63 332.81 528.65 C320.21 528.8 307.88 528.19 297.5 520.31 C296.39 519.54 296.39 519.54 295.26 518.75 C289.57 514.62 285.59 509.99 281.5 504.31 C280.82 503.54 280.82 503.54 280.13 502.75 C275.1 496.75 273.61 488.69 271.5 481.31 C271.17 480.32 270.84 479.33 270.5 478.31 C268.63 477.54 268.63 477.54 266.38 477.06 C260.97 475.35 257.68 473.05 254.5 468.31 C253.08 465.18 251.78 462.06 250.63 458.82 C249.09 454.51 247.08 451.07 244.5 447.31 C244.5 446.65 244.5 445.99 244.5 445.31 C243.67 445.17 242.85 445.02 242 444.88 C230.71 439.83 225.84 426.14 221.5 415.31 C220.18 411.54 219.5 408.36 219.5 404.31 C218.92 404.15 218.34 404 217.74 403.83 C211.45 401.95 206.65 399.81 203.13 394.08 C200.62 389.27 198.79 384.4 197.19 379.22 C196.35 376.9 195.08 375.2 193.5 373.31 C193.5 372.65 193.5 371.99 193.5 371.31 C192.76 371.21 192.01 371.11 191.25 371 C185.89 369.66 182.05 365.56 178.97 361.1 C177.62 358.75 176.38 356.37 175.19 353.94 C174.56 352.74 174.56 352.74 173.93 351.52 C171.54 346.82 169.72 342.24 168.38 337.14 C167.22 334.73 165.9 334.37 163.5 333.31 C162.17 331.65 160.83 329.98 159.5 328.31 C158.2 327.26 156.88 326.22 155.56 325.19 C149.33 319.85 147.04 312.73 145.19 304.94 C144.13 301.16 143.12 299.59 139.75 297.56 C139.05 297.19 138.35 296.82 137.62 296.44 C135.46 295.29 133.65 294.04 131.75 292.5 C130.95 291.87 130.95 291.87 130.14 291.23 C126.69 287.2 124.83 282.03 122.64 277.24 C118.26 267.56 118.26 267.56 110.44 260.63 C102.3 255.1 95.95 242.65 93.78 233.18 C93.61 232.23 93.43 231.29 93.25 230.31 C92.45 226.86 91.99 225.67 89.09 223.55 C87.15 222.56 85.19 221.6 83.22 220.67 C75.21 216.67 73.41 209.71 70.7 201.63 C68.3 194.99 64.97 191.06 58.66 187.84 C52.29 183.33 48.99 176.91 45.88 169.94 C45.51 169.14 45.14 168.34 44.76 167.52 C43.28 164.31 41.82 161.11 40.51 157.84 C38.58 153.09 37.13 150.31 32.56 147.62 C25.12 143.18 22.04 138.39 19.94 130.25 C18.6 125.17 17.27 121.14 13.5 117.31 C11.65 116.19 11.65 116.19 9.69 115.5 C3.16 112.45 -0.92 107.37 -3.44 100.69 C-3.74 99.85 -4.04 99.02 -4.35 98.16 C-7.56 90.19 -11.73 82 -18.71 76.79 C-25.59 71.12 -31.22 62.83 -33.24 54.14 C-34.69 47.4 -34.69 47.4 -39.02 42.36 C-40.95 41.38 -42.9 40.44 -44.88 39.55 C-50.94 36.69 -53.7 31.01 -55.96 24.9 C-57.06 19.61 -55.02 15.75 -52.27 11.34 C-47.82 5.46 -41.43 2.58 -34.22 1.48 C-32.67 1.32 -31.12 1.18 -29.56 1.06 C-28.69 0.99 -27.83 0.92 -26.93 0.84 C-17.97 0.18 -8.99 0.07 0 0 Z " fill="#000000" transform="translate(485.5,375.6875)"/>
</svg>
