<?xml version="1.0" standalone="no"?>
<!DOCTYPE svg PUBLIC "-//W3C//DTD SVG 20010904//EN"
 "http://www.w3.org/TR/2001/REC-SVG-20010904/DTD/svg10.dtd">
<svg version="1.0" xmlns="http://www.w3.org/2000/svg"
 width="149.000000pt" height="149.000000pt" viewBox="0 0 149.000000 149.000000"
 preserveAspectRatio="xMidYMid meet">
<metadata>
Created by potrace 1.14, written by Peter Selinger 2001-2017
</metadata>
<g transform="translate(0.000000,149.000000) scale(0.100000,-0.100000)"
fill="#000000" stroke="none">
<path d="M487 1378 c-34 -12 -30 -34 19 -93 38 -47 79 -126 89 -172 6 -28 3
-34 -23 -47 -51 -26 -142 -117 -191 -190 -84 -126 -110 -201 -117 -331 -9
-197 68 -345 216 -418 60 -30 72 -32 165 -32 87 0 107 3 157 27 141 66 222
210 222 398 0 120 -28 211 -99 326 -54 86 -156 193 -209 218 -30 14 -37 25
-52 77 -9 33 -21 62 -25 65 -5 3 -9 10 -9 17 0 6 23 -23 50 -65 109 -166 265
-262 476 -294 l47 -7 -5 99 c-8 150 -44 225 -144 299 -98 74 -219 95 -339 61
-52 -16 -60 -16 -106 -1 -27 9 -59 29 -71 44 -20 25 -27 27 -51 19z m473 -150
c101 -50 152 -123 166 -238 l6 -49 -31 9 c-17 5 -32 8 -34 8 -7 -3 -60 18
-115 44 -89 42 -232 187 -232 235 0 14 35 21 119 20 50 0 77 -7 121 -29z
m-339 -244 c17 -15 20 -15 44 0 26 17 26 17 90 -45 114 -110 188 -251 194
-369 1 -30 4 -57 6 -61 7 -11 -27 -154 -46 -190 -26 -51 -81 -103 -141 -133
-42 -21 -61 -24 -126 -22 -97 4 -101 5 -163 45 -164 107 -193 379 -62 589 39
64 163 202 181 202 3 0 14 -7 23 -16z"/>
<path d="M581 888 c-66 -66 -133 -167 -155 -233 -49 -152 -7 -325 95 -387 94
-59 203 -47 280 31 52 51 68 91 76 192 9 111 -16 196 -93 305 -39 56 -127 144
-143 144 -4 0 -31 -24 -60 -52z"/>
</g>
</svg>
