<?xml version="1.0" standalone="no"?>
<!DOCTYPE svg PUBLIC "-//W3C//DTD SVG 20010904//EN"
 "http://www.w3.org/TR/2001/REC-SVG-20010904/DTD/svg10.dtd">
<svg version="1.0" xmlns="http://www.w3.org/2000/svg"
 width="262.000000pt" height="262.000000pt" viewBox="0 0 262.000000 262.000000"
 preserveAspectRatio="xMidYMid meet">
<metadata>
Created by potrace 1.14, written by Peter Selinger 2001-2017
</metadata>
<g transform="translate(0.000000,262.000000) scale(0.100000,-0.100000)"
fill="#000000" stroke="none">
<path d="M1289 2023 c-11 -26 -39 -93 -60 -148 -22 -55 -54 -131 -72 -170 -44
-99 -236 -475 -258 -507 -11 -14 -19 -28 -19 -30 0 -3 -14 -29 -31 -59 -17
-30 -28 -46 -25 -36 3 11 2 16 -4 12 -6 -3 -10 -16 -10 -28 0 -12 -9 -33 -20
-47 -11 -14 -20 -31 -20 -37 0 -7 -5 -13 -11 -13 -5 0 -7 6 -3 13 4 7 3 9 -2
4 -5 -5 -10 -13 -10 -18 -1 -5 -2 -14 -3 -20 0 -5 -5 -8 -9 -5 -5 3 -9 -1 -9
-9 0 -8 4 -12 9 -9 4 3 8 0 8 -6 0 -6 -8 -10 -17 -9 -31 3 -34 0 -23 -21 8
-15 7 -26 -6 -44 -8 -14 -16 -27 -16 -30 0 -18 -12 -46 -18 -46 -5 0 -12 -10
-15 -21 -4 -12 -22 -47 -41 -78 -18 -30 -30 -59 -26 -63 7 -7 128 48 155 71 8
6 17 8 20 4 4 -3 9 1 13 10 3 9 12 13 20 10 8 -3 14 0 14 7 0 6 5 8 10 5 6 -3
10 -1 10 4 0 6 4 11 9 11 5 0 8 -8 6 -17 -1 -10 0 -12 2 -5 3 7 8 10 13 7 4
-3 14 3 21 13 13 16 13 16 -5 2 -17 -13 -19 -13 -14 0 2 8 11 15 19 15 8 0 18
6 22 13 5 7 12 10 18 7 5 -4 9 0 9 7 1 7 10 -4 21 -24 11 -21 22 -38 25 -38 2
0 0 9 -6 19 -13 25 -13 31 0 31 6 0 10 -6 10 -14 0 -8 5 -18 11 -22 8 -4 9 1
4 17 l-8 24 24 -20 c18 -15 20 -16 10 -3 -14 19 -3 24 17 8 9 -7 9 -7 2 2 -19
23 -10 31 13 12 l22 -19 -19 22 c-13 16 -23 20 -31 13 -6 -5 -16 -6 -20 -2 -5
4 -6 2 -2 -3 3 -7 -6 -11 -22 -10 -15 0 -28 5 -28 12 0 7 5 9 10 6 5 -3 13 1
18 8 7 11 9 11 9 1 0 -7 5 -10 10 -7 6 4 8 11 5 16 -4 5 -1 9 4 9 6 0 11 -5
11 -11 0 -5 4 -7 10 -4 5 3 21 -5 35 -19 13 -14 27 -20 30 -15 4 5 1 9 -6 9
-7 0 -4 7 7 15 23 17 43 20 26 3 -7 -7 -12 -17 -12 -23 0 -5 5 -2 11 8 9 15
13 16 27 5 15 -12 16 -11 3 5 -15 19 -2 24 17 5 9 -9 12 -9 12 0 0 7 5 12 11
12 5 0 7 -6 3 -12 -4 -8 -3 -10 2 -5 5 5 10 13 10 18 3 22 5 23 14 9 7 -12 11
-10 18 9 6 17 11 21 16 12 5 -7 0 -22 -10 -34 -18 -21 -18 -22 0 -5 17 15 21
15 43 1 21 -14 23 -14 17 1 -3 9 -9 14 -13 12 -4 -3 -13 4 -19 15 -11 17 -10
20 5 17 10 -2 23 -12 30 -23 7 -11 12 -14 13 -7 0 6 7 12 16 12 14 0 15 -2 3
-17 -13 -16 -12 -17 3 -5 9 8 14 20 11 27 -5 16 -23 16 -36 0 -5 -6 -7 -3 -4
7 5 12 1 16 -14 13 -16 -3 -18 -1 -10 9 6 7 8 16 4 19 -3 4 -2 7 3 7 5 0 15
-9 22 -21 7 -12 16 -18 19 -15 3 3 1 11 -5 18 -8 10 -3 18 21 31 32 17 32 17
10 -2 -23 -19 -32 -38 -13 -26 6 3 10 2 10 -2 0 -19 36 -11 37 9 2 17 0 18
-15 6 -15 -12 -16 -11 -3 4 15 20 35 13 27 -9 -4 -10 -2 -13 7 -10 12 5 47
-24 47 -38 0 -14 -19 -2 -25 14 -4 13 -12 18 -22 14 -14 -5 -13 -7 1 -15 17
-10 13 -28 -7 -28 -7 0 -6 4 3 10 13 9 13 10 0 11 -8 1 -18 1 -22 0 -5 0 -8 4
-8 10 0 5 -5 7 -11 4 -6 -4 -8 -14 -5 -22 4 -9 1 -22 -5 -29 -8 -10 -8 -14 0
-14 6 0 11 5 11 11 0 5 4 7 10 4 6 -4 7 1 3 12 -6 16 -5 16 10 4 9 -7 15 -17
12 -21 -6 -9 44 -32 55 -25 8 5 25 -24 21 -38 -1 -5 3 -6 9 -2 11 7 6 16 -35
64 l-20 23 21 -6 c29 -9 53 18 28 32 -15 8 -15 9 0 15 10 4 15 3 11 -2 -3 -5
0 -11 7 -13 10 -4 9 -11 -3 -29 -22 -34 -13 -56 11 -27 l19 23 -2 -22 c-1 -13
-6 -23 -11 -23 -5 0 -6 -3 -3 -6 4 -4 14 -1 23 7 13 11 15 11 12 -2 -1 -7 2
-14 7 -14 6 0 9 5 7 12 -2 7 2 12 9 11 6 -2 12 7 14 20 1 12 -4 22 -11 22 -8
0 -11 -7 -8 -17 5 -15 4 -16 -5 -3 -9 13 -11 13 -11 0 -1 -12 -3 -11 -11 3 -6
9 -16 15 -22 11 -7 -3 -4 1 5 9 14 11 15 16 5 27 -10 12 -9 12 4 2 9 -6 19
-10 23 -7 3 3 2 -1 -4 -7 -14 -17 -13 -32 3 -21 21 17 47 23 44 11 -1 -6 4
-13 11 -15 6 -3 12 1 12 9 0 10 2 10 10 -2 5 -9 5 -19 -2 -27 -7 -9 -7 -17 1
-27 9 -11 9 -15 -1 -19 -9 -3 -6 -7 7 -12 36 -12 70 -33 70 -44 0 -5 3 -12 6
-15 3 -3 6 1 6 10 0 9 -11 23 -24 31 -12 8 -23 20 -23 25 0 6 15 -1 33 -15 21
-16 44 -24 61 -23 14 2 29 -1 32 -5 3 -5 -1 -9 -8 -9 -17 -1 22 -23 42 -25 8
-1 26 -7 40 -15 14 -8 31 -15 37 -16 20 -3 26 15 9 22 -9 3 -16 14 -16 23 0
14 2 14 10 1 5 -8 15 -15 22 -15 8 0 13 -11 12 -28 -1 -15 3 -27 8 -27 6 0 8
7 5 15 -4 8 -1 17 5 21 7 5 8 2 3 -6 -5 -9 -2 -10 14 -5 13 4 21 2 21 -5 0 -6
-4 -8 -10 -5 -5 3 -10 2 -10 -3 0 -10 66 -10 76 1 7 6 -66 160 -79 165 -4 2
-5 8 -1 13 3 5 2 9 -3 9 -4 0 -24 30 -43 67 -19 37 -40 73 -45 79 -6 6 -19 32
-30 58 -10 25 -23 46 -27 46 -4 0 -8 4 -8 9 0 5 -28 60 -63 122 -83 149 -240
463 -306 614 -29 66 -61 138 -71 160 -9 22 -23 57 -29 77 -18 55 -29 55 -52 1z
m63 -861 c-1 -8 2 -11 7 -8 5 3 17 -7 27 -22 17 -26 17 -26 0 -12 -20 16 -49
23 -40 9 3 -5 3 -9 0 -9 -2 0 -12 -3 -22 -7 -13 -5 -15 -3 -8 8 15 25 14 42
-2 28 -7 -6 -11 -15 -8 -20 3 -5 0 -9 -7 -9 -8 0 -8 -4 1 -15 9 -10 9 -15 1
-15 -6 0 -11 5 -11 10 0 12 -27 13 -32 1 -1 -5 -9 -3 -16 5 -8 9 -9 14 -2 14
6 0 8 5 4 12 -5 7 -3 8 6 3 10 -6 12 -4 7 9 -5 12 0 20 16 26 32 13 83 8 79
-8z m21 -47 c4 -8 1 -17 -5 -21 -7 -4 -8 -3 -4 4 4 7 2 12 -3 12 -6 0 -11 -8
-12 -17 0 -12 -2 -13 -6 -5 -3 7 1 19 7 27 15 18 17 18 23 0z m-127 -51 c1 -9
0 -13 -4 -10 -3 4 -7 14 -8 22 -1 9 0 13 4 10 3 -4 7 -14 8 -22z m84 16 c0 -5
-5 -10 -11 -10 -5 0 -7 5 -4 10 3 6 8 10 11 10 2 0 4 -4 4 -10z m60 0 c0 -5
-5 -10 -11 -10 -5 0 -7 5 -4 10 3 6 8 10 11 10 2 0 4 -4 4 -10z m-80 -60 c0
-5 -2 -10 -4 -10 -3 0 -8 5 -11 10 -3 6 -1 10 4 10 6 0 11 -4 11 -10z m-36
-58 c3 -5 -1 -9 -9 -9 -8 0 -12 4 -9 9 3 4 7 8 9 8 2 0 6 -4 9 -8z m92 -34
c19 -23 19 -23 -2 -5 -11 9 -24 14 -29 10 -4 -5 -5 -2 -1 5 9 16 10 16 32 -10z
m-122 -7 c3 -5 -2 -15 -12 -22 -15 -12 -16 -12 -5 2 7 9 10 19 6 22 -3 4 -4 7
0 7 3 0 8 -4 11 -9z m53 3 c-3 -3 -12 -4 -19 -1 -8 3 -5 6 6 6 11 1 17 -2 13
-5z m48 -13 c3 -5 2 -12 -3 -15 -5 -3 -9 1 -9 9 0 17 3 19 12 6z m-63 -20 c-4
-10 -7 -11 -10 -3 -2 7 -9 9 -14 6 -6 -4 -8 -3 -5 3 10 16 36 11 29 -6z m33 0
c-3 -6 -11 -11 -16 -11 -5 0 -4 6 3 14 14 16 24 13 13 -3z m-585 -6 c0 -12
-19 -12 -23 0 -4 9 -1 12 9 8 7 -3 14 -7 14 -8z m536 -16 c7 -12 -15 -41 -27
-34 -4 3 -12 -3 -18 -12 -6 -10 -11 -15 -11 -10 0 4 -11 0 -25 -9 -20 -13 -28
-14 -40 -4 -11 9 -15 9 -15 1 0 -7 -4 -10 -9 -6 -6 3 -9 14 -8 25 1 10 4 17 8
14 4 -2 9 1 11 8 3 7 7 5 11 -6 4 -9 3 -15 -2 -11 -5 3 -12 2 -15 -3 -2 -4 4
-9 16 -9 13 -1 18 3 14 12 -3 8 0 17 6 21 7 5 9 -2 5 -22 -4 -25 -3 -26 7 -11
7 9 16 14 19 10 4 -3 7 -1 7 5 0 7 -5 12 -12 12 -6 0 -8 3 -5 6 4 4 13 1 22
-6 17 -14 21 -1 5 18 -7 9 -7 9 2 2 17 -14 32 -12 20 3 -8 10 -6 13 8 14 11 1
22 -3 26 -8z m182 -24 c-3 -3 -9 2 -12 12 -6 14 -5 15 5 6 7 -7 10 -15 7 -18z
m-358 -25 c7 12 9 10 7 -8 -2 -35 -28 -44 -56 -21 -13 10 -19 19 -14 19 5 0
14 -5 20 -11 8 -8 13 -8 17 0 4 6 2 11 -4 11 -6 0 -8 5 -4 11 4 8 9 7 15 -2 8
-12 11 -11 19 1z m337 -17 c-4 -3 0 -15 10 -25 17 -19 8 -24 -16 -9 -13 9 -9
41 5 41 4 0 4 -3 1 -7z m243 -28 c8 5 11 4 6 -3 -3 -6 -2 -13 4 -17 6 -4 7
-11 4 -17 -4 -7 -2 -8 4 -4 6 4 8 14 5 23 -4 11 -3 14 5 9 7 -4 12 -14 12 -22
0 -8 5 -14 10 -14 6 0 10 5 10 12 0 6 6 4 13 -7 9 -11 19 -15 27 -10 9 6 11 4
5 -5 -6 -9 -1 -10 16 -5 18 5 20 4 9 -4 -8 -5 -11 -13 -7 -17 3 -4 14 -1 24 7
14 12 16 12 8 0 -6 -11 -4 -13 8 -8 10 4 16 2 14 -6 -1 -7 6 -11 15 -11 9 1
14 -4 12 -11 -3 -7 -1 -16 5 -20 6 -3 11 -11 11 -16 0 -6 -13 -1 -29 10 -15
11 -31 18 -34 15 -3 -3 -14 -1 -24 6 -16 10 -16 10 4 5 12 -3 25 -1 29 6 4 8
3 9 -5 5 -6 -4 -22 -2 -34 6 -12 8 -33 13 -47 12 -28 -2 -53 13 -44 28 3 5 -2
8 -12 6 -11 -2 -19 3 -19 11 0 8 -5 16 -11 18 -7 2 -11 -4 -10 -13 0 -9 -5
-19 -13 -22 -8 -3 -11 0 -7 6 3 6 2 13 -4 17 -6 4 -5 13 2 25 8 12 15 15 19 8
4 -6 12 -7 19 -3z"/>
<path d="M1277 1143 c-10 -9 -9 -23 1 -23 5 0 9 7 9 15 0 17 -1 18 -10 8z"/>
<path d="M1243 855 c0 -8 4 -12 9 -9 4 3 8 9 8 15 0 5 -4 9 -8 9 -5 0 -9 -7
-9 -15z"/>
<path d="M1065 790 c-3 -6 1 -7 9 -4 18 7 21 14 7 14 -6 0 -13 -4 -16 -10z"/>
<path d="M1635 761 c-3 -5 -2 -12 3 -15 5 -3 9 1 9 9 0 17 -3 19 -12 6z"/>
<path d="M1720 720 c-8 -6 -10 -10 -5 -11 6 0 21 -3 34 -5 14 -2 23 -3 20 -1
-2 1 -11 8 -19 14 -10 8 -21 9 -30 3z"/>
<path d="M784 1052 c4 -7 2 -21 -5 -30 -12 -15 -11 -15 6 0 16 15 17 20 6 30
-11 11 -13 10 -7 0z"/>
<path d="M746 1002 c-3 -5 1 -9 9 -9 8 0 12 4 9 9 -3 4 -7 8 -9 8 -2 0 -6 -4
-9 -8z"/>
<path d="M676 853 c-6 -14 -5 -15 5 -6 7 7 10 15 7 18 -3 3 -9 -2 -12 -12z"/>
<path d="M1585 760 c2 -14 4 -29 4 -35 1 -5 5 -3 10 5 6 8 7 18 4 22 -2 5 0
14 6 21 7 9 5 13 -9 13 -14 0 -17 -6 -15 -26z"/>
<path d="M887 719 c-9 -17 -12 -27 -7 -24 6 3 10 0 10 -7 0 -10 2 -10 9 1 5 8
7 21 3 30 -4 13 -1 12 16 -3 27 -23 29 -17 4 12 l-18 20 -17 -29z"/>
<path d="M1570 699 c0 -5 5 -7 10 -4 6 3 10 8 10 11 0 2 -4 4 -10 4 -5 0 -10
-5 -10 -11z"/>
<path d="M1596 693 c-6 -14 -5 -15 5 -6 7 7 10 15 7 18 -3 3 -9 -2 -12 -12z"/>
<path d="M853 683 c4 -3 1 -13 -6 -22 -11 -14 -10 -14 5 -2 16 12 16 31 1 31
-4 0 -3 -3 0 -7z"/>
<path d="M930 679 c0 -5 5 -7 10 -4 6 3 10 8 10 11 0 2 -4 4 -10 4 -5 0 -10
-5 -10 -11z"/>
<path d="M1646 682 c-3 -5 1 -9 9 -9 8 0 12 4 9 9 -3 4 -7 8 -9 8 -2 0 -6 -4
-9 -8z"/>
<path d="M778 668 c5 -5 16 -8 23 -6 8 3 3 7 -10 11 -17 4 -21 3 -13 -5z"/>
<path d="M1725 660 c-3 -6 1 -7 9 -4 18 7 21 14 7 14 -6 0 -13 -4 -16 -10z"/>
<path d="M815 640 c-3 -5 -1 -10 4 -10 6 0 11 5 11 10 0 6 -2 10 -4 10 -3 0
-8 -4 -11 -10z"/>
<path d="M1860 606 c0 -2 8 -10 18 -17 15 -13 16 -12 3 4 -13 16 -21 21 -21
13z"/>
</g>
</svg>
