<?xml version="1.0" standalone="no"?>
<!DOCTYPE svg PUBLIC "-//W3C//DTD SVG 20010904//EN"
 "http://www.w3.org/TR/2001/REC-SVG-20010904/DTD/svg10.dtd">
<svg version="1.0" xmlns="http://www.w3.org/2000/svg"
 width="221.000000pt" height="221.000000pt" viewBox="0 0 221.000000 221.000000"
 preserveAspectRatio="xMidYMid meet">
<metadata>
Created by potrace 1.14, written by Peter Selinger 2001-2017
</metadata>
<g transform="translate(0.000000,221.000000) scale(0.100000,-0.100000)"
fill="#000000" stroke="none">
<path d="M972 2149 c-443 -53 -811 -363 -918 -775 -22 -84 -26 -121 -26 -239
0 -118 4 -155 25 -237 43 -163 121 -307 229 -423 l55 -59 21 47 21 48 -66 87
c-183 239 -234 531 -142 810 32 97 70 169 137 258 285 378 828 498 1265 278
141 -71 286 -199 370 -326 l38 -58 55 0 c29 0 54 3 54 7 0 3 -12 27 -27 52
-215 370 -651 582 -1091 530z"/>
<path d="M1010 1888 c0 -24 -1 -146 -3 -273 l-2 -230 -100 -2 c-211 -3 -268
-19 -348 -92 -61 -56 -91 -127 -90 -212 1 -98 40 -164 132 -225 37 -24 40 -29
24 -37 -39 -22 -78 -78 -138 -202 -57 -117 -125 -265 -125 -270 0 -2 272 1
280 3 3 1 21 37 40 79 72 165 135 276 170 305 29 23 48 29 98 32 l62 4 0 -212
0 -213 123 2 c67 1 126 2 130 3 5 1 8 21 7 45 -1 23 -1 239 -1 480 l1 437 125
0 c68 0 148 5 177 11 112 24 209 119 232 226 33 149 -35 285 -174 352 -55 26
-56 26 -337 29 l-283 3 0 -43z m487 -171 c53 -28 67 -122 24 -171 -29 -34 -65
-44 -161 -45 l-95 -2 2 108 c1 59 2 114 2 122 1 20 184 10 228 -12z m-487
-642 c0 -102 -2 -115 -17 -116 -85 -5 -175 1 -202 15 -54 28 -76 100 -48 156
21 43 71 60 175 60 l92 0 0 -115z"/>
<path d="M2056 1470 c-82 -22 -115 -46 -48 -36 51 8 55 -6 17 -62 -27 -39 -31
-52 -16 -52 5 0 19 16 31 36 16 25 26 32 33 25 16 -16 53 -13 71 4 14 14 14
41 0 88 -6 20 0 20 -88 -3z m77 -29 c6 -23 -9 -51 -28 -51 -8 0 -21 10 -30 22
-14 21 -14 24 2 35 24 19 50 16 56 -6z"/>
<path d="M2043 1272 c-33 -3 -33 -3 -32 -58 1 -35 6 -53 13 -51 6 2 10 21 8
45 -2 41 -2 42 32 42 30 0 33 -3 34 -27 0 -53 2 -63 12 -63 5 0 9 18 8 41 -1
44 17 66 39 47 7 -5 12 -13 11 -16 -3 -30 4 -72 12 -67 8 5 8 56 1 107 -1 7
-70 7 -138 0z"/>
<path d="M2010 1108 c0 -9 15 -29 33 -43 17 -15 28 -29 22 -31 -5 -2 -26 -14
-45 -26 -45 -27 -23 -35 27 -9 l39 20 35 -30 c19 -16 37 -29 42 -29 16 0 5 17
-24 39 -24 18 -28 25 -18 37 6 8 17 14 25 14 14 0 47 30 41 37 -3 2 -25 -6
-51 -19 l-46 -22 -40 39 c-28 27 -40 34 -40 23z"/>
<path d="M2121 873 l-13 -32 -70 25 c-38 14 -73 23 -76 19 -9 -9 15 -22 73
-41 64 -21 68 -25 56 -57 -6 -15 -6 -29 -1 -32 12 -7 52 103 47 129 -3 18 -6
16 -16 -11z"/>
<path d="M1910 762 c0 -5 12 -14 26 -21 16 -7 24 -18 22 -29 -3 -17 -7 -18
-51 -21 -13 0 -32 -8 -43 -17 -18 -14 -16 -15 29 -9 43 6 48 4 56 -18 19 -51
63 -47 98 7 l22 34 -68 41 c-66 40 -91 49 -91 33z m108 -70 l23 -18 -21 -21
c-32 -35 -72 -5 -50 38 13 23 19 23 48 1z"/>
<path d="M1799 596 c-33 -16 -51 -54 -37 -80 15 -29 90 -95 108 -96 8 0 -8 23
-37 51 -53 51 -63 75 -41 97 21 21 47 13 92 -28 39 -36 66 -50 66 -34 0 9 -91
89 -110 96 -9 3 -28 1 -41 -6z"/>
<path d="M1648 457 c-21 -19 -38 -39 -39 -43 0 -5 -2 -16 -4 -26 -2 -9 5 -30
16 -47 30 -49 88 -54 142 -10 l27 21 -30 41 c-16 23 -40 55 -53 70 l-22 28
-37 -34z m89 -119 c-30 -24 -62 -22 -87 4 -28 31 -26 72 7 97 l26 21 38 -52
38 -53 -22 -17z"/>
<path d="M1412 319 c19 -51 19 -57 -6 -63 -32 -8 -48 -38 -40 -71 8 -31 41
-41 88 -25 l35 11 -27 76 c-16 42 -34 79 -42 81 -8 3 -11 -1 -8 -9z m39 -106
c7 -20 6 -28 -3 -35 -38 -24 -83 16 -52 46 23 23 43 19 55 -11z"/>
<path d="M693 243 c-20 -67 -21 -68 -51 -65 -18 2 -32 -1 -32 -5 0 -13 129
-53 136 -42 5 8 -3 13 -43 24 -9 3 -6 23 12 74 21 64 23 81 5 81 -3 0 -15 -30
-27 -67z"/>
<path d="M1269 286 c-3 -3 -23 -8 -45 -12 -46 -7 -56 -12 -49 -24 3 -5 21 -4
41 2 20 5 37 8 39 6 2 -2 9 -34 17 -71 7 -38 18 -67 23 -65 10 3 10 8 1 68
-11 64 -21 102 -27 96z"/>
<path d="M860 268 c-56 -21 -54 -63 4 -89 24 -10 47 -26 50 -34 9 -24 -33 -35
-71 -19 -28 11 -33 11 -33 0 0 -12 20 -21 72 -31 10 -2 27 4 39 14 32 26 20
66 -25 81 -41 13 -58 31 -47 49 8 13 19 12 81 -1 8 -2 16 2 17 7 4 17 -59 33
-87 23z"/>
<path d="M1001 248 c1 -27 56 -151 71 -159 16 -9 23 6 61 124 13 38 13 47 2
47 -7 0 -16 -11 -19 -25 -5 -21 -12 -25 -45 -25 -33 0 -40 4 -45 25 -6 25 -26
35 -25 13z m91 -98 l-15 -41 -14 32 c-18 44 -17 49 16 49 l29 0 -16 -40z"/>
</g>
</svg>
